<?xml version="1.0" encoding="UTF-8" standalone="no"?>
<!-- Created with Inkscape (http://www.inkscape.org/) -->

<svg
   width="146.62622"
   height="262.5715"
   viewBox="0 0 38.794854 69.472043"
   version="1.1"
   id="svg1"
   inkscape:version="1.3 (0e150ed6c4, 2023-07-21)"
   sodipodi:docname="jgra_logo.svg"
   xml:space="preserve"
   xmlns:inkscape="http://www.inkscape.org/namespaces/inkscape"
   xmlns:sodipodi="http://sodipodi.sourceforge.net/DTD/sodipodi-0.dtd"
   xmlns="http://www.w3.org/2000/svg"
   xmlns:svg="http://www.w3.org/2000/svg"><sodipodi:namedview
     id="namedview1"
     pagecolor="#ffffff"
     bordercolor="#000000"
     borderopacity="0.25"
     inkscape:showpageshadow="2"
     inkscape:pageopacity="0.0"
     inkscape:pagecheckerboard="0"
     inkscape:deskcolor="#3c3c3c"
     inkscape:document-units="mm"
     inkscape:zoom="1.8246276"
     inkscape:cx="138.11038"
     inkscape:cy="148.24943"
     inkscape:window-width="1920"
     inkscape:window-height="1029"
     inkscape:window-x="0"
     inkscape:window-y="27"
     inkscape:window-maximized="1"
     inkscape:current-layer="layer1"
     inkscape:export-bgcolor="#ffffff00" /><defs
     id="defs1" /><g
     inkscape:label="Layer 1"
     inkscape:groupmode="layer"
     id="layer1"
     transform="translate(-204.68962,-41.086525)"><g
       id="g1"><path
         id="rect63"
         style="fill:#ffffff;stroke:#000000;stroke-width:1.41245"
         d="m 206.41198,41.839626 h 35.35015 c 0.58729,0 1.06009,0.472803 1.06009,1.060097 v 65.845647 c 0,0.58729 -0.4728,1.06009 -1.06009,1.06009 h -35.35015 c -0.58729,0 -1.0601,-0.4728 -1.0601,-1.06009 V 42.899723 c 0,-0.587294 0.47281,-1.060097 1.0601,-1.060097 z" /><path
         d="m 268.11198,85.110402 v -1.455238 h 1.45523 v 1.455238 z m 5.09333,0 v -0.727619 h -0.72762 v -2.182856 h 0.72762 v -0.727619 h 2.91047 V 80.01707 h 1.45524 v 5.093332 z m 0.72762,-0.727619 h 2.18285 v -2.182856 h -2.18285 z m 5.09333,0.727619 v -0.727619 h -0.72762 v -2.182856 h 0.72762 v -0.727619 h 3.63809 v 0.727619 h 0.72762 v 1.455237 h -3.63809 v 0.727619 h 2.91047 v 0.727619 z m 0.72762,-2.182857 h 2.18285 v -0.727618 h -2.18285 z m 6.54857,2.182857 v -0.727619 h -0.72762 v -0.727619 h -0.72762 v -2.182856 h 1.45524 v 2.182856 h 1.45523 v -2.182856 h 1.45524 v 2.182856 h -0.72762 v 0.727619 h -0.72762 v 0.727619 z"
         id="text63"
         style="font-size:5.82095px;line-height:1;font-family:'Press Start 2P';-inkscape-font-specification:'Press Start 2P, Normal';stroke-width:0.156023"
         transform="scale(0.80029737,1.2495355)"
         aria-label=".dev" /><path
         id="rect70"
         style="stroke-width:0.448193"
         d="m 208.44308,70.507272 h 15.41606 v 24.779423 h -15.41606 z m 15.41607,0 h 16.0581 v 25.146277 h -16.0581 z m -15.41606,-24.77942 h 15.41606 v 24.779422 h -15.41606 z m 15.41606,-0.523407 h 15.65451 v 25.302829 h -15.65451 z" /><path
         id="rect67"
         style="fill:none;stroke:#000000;stroke-width:1.11956"
         d="m 209.66675,45.204445 h 28.78531 c 0.81172,0 1.4652,0.653477 1.4652,1.465196 v 47.518712 c 0,0.811719 -0.65348,1.465196 -1.4652,1.465196 h -28.78531 c -0.81172,0 -1.4652,-0.653477 -1.4652,-1.465196 V 46.669641 c 0,-0.811719 0.65348,-1.465196 1.4652,-1.465196 z" /><path
         style="font-size:13.6693px;line-height:1;font-family:'Press Start 2P';-inkscape-font-specification:'Press Start 2P, ';fill:#ffffff;stroke-width:4.51796"
         d="m 262.41061,56.675344 v -1.708663 h -1.70866 v -1.708662 h -1.70866 v -5.125988 h 1.70866 v -1.708662 h 1.70866 v -1.708663 h 8.54331 v 1.708663 h -6.83465 v 1.708662 h -1.70866 v 5.125988 h 1.70866 v 1.708662 h 3.41733 v -3.417325 h -1.70866 v -1.708662 h 5.12598 v 6.83465 z"
         id="text64"
         transform="scale(0.8758917,1.1416937)"
         aria-label="G" /><path
         style="font-size:13.6693px;line-height:1;font-family:'Press Start 2P';-inkscape-font-specification:'Press Start 2P, ';fill:#ffffff;stroke-width:4.51796"
         d="M 240.66043,78.798822 V 66.838184 h 10.25198 v 1.708663 h 1.70866 v 5.125987 h -3.41733 v 1.708663 h 1.70867 v 1.708662 h 1.70866 v 1.708663 h -5.12599 v -1.708663 h -1.70866 v -1.708662 h -1.70866 v 3.417325 z m 3.41733,-5.125988 h 3.41732 v -1.708662 h 1.70866 v -3.417325 h -5.12598 z"
         id="text68"
         transform="scale(0.8758917,1.1416937)"
         aria-label="R" /><path
         style="font-size:13.6693px;line-height:1;font-family:'Press Start 2P';-inkscape-font-specification:'Press Start 2P, ';fill:#ffffff;stroke-width:4.51796"
         d="m 258.99329,78.798807 v -8.543313 h 1.70866 v -1.708662 h 1.70866 v -1.708663 h 5.12599 v 1.708663 h 1.70866 v 1.708662 h 1.70866 v 8.543313 h -3.41732 v -3.417325 h -5.12599 v 3.417325 z m 3.41732,-5.125988 h 5.12599 v -3.417325 h -1.70866 v -1.708662 h -1.70867 v 1.708662 h -1.70866 z"
         id="text69"
         transform="scale(0.8758917,1.1416937)"
         aria-label="A" /><path
         style="font-size:13.6693px;line-height:1;font-family:'Press Start 2P';-inkscape-font-specification:'Press Start 2P, ';fill:#ffffff;stroke-width:4.51796"
         d="m 242.36909,56.675344 v -1.708663 h -1.70866 v -1.708662 h 3.41733 v 1.708662 h 5.12598 V 44.714706 h 3.41733 v 10.251975 h -1.70866 v 1.708663 z"
         id="text70"
         transform="scale(0.8758917,1.1416937)"
         aria-label="J" /></g></g></svg>
