<?xml version="1.0" encoding="UTF-8" standalone="no"?>
<!-- Created with Inkscape (http://www.inkscape.org/) -->

<svg
   width="146.62622"
   height="262.5715"
   viewBox="0 0 38.794854 69.472043"
   version="1.1"
   id="svg1"
   inkscape:version="1.3 (0e150ed6c4, 2023-07-21)"
   sodipodi:docname="jgra_logo.svg"
   xml:space="preserve"
   xmlns:inkscape="http://www.inkscape.org/namespaces/inkscape"
   xmlns:sodipodi="http://sodipodi.sourceforge.net/DTD/sodipodi-0.dtd"
   xmlns="http://www.w3.org/2000/svg"
   xmlns:svg="http://www.w3.org/2000/svg"><sodipodi:namedview
     id="namedview1"
     pagecolor="#ffffff"
     bordercolor="#000000"
     borderopacity="0.25"
     inkscape:showpageshadow="2"
     inkscape:pageopacity="0.0"
     inkscape:pagecheckerboard="0"
     inkscape:deskcolor="#3c3c3c"
     inkscape:document-units="mm"
     inkscape:zoom="1.1169686"
     inkscape:cx="-68.488943"
     inkscape:cy="117.72936"
     inkscape:window-width="1920"
     inkscape:window-height="1029"
     inkscape:window-x="0"
     inkscape:window-y="27"
     inkscape:window-maximized="1"
     inkscape:current-layer="layer1"
     inkscape:export-bgcolor="#ffffff00" /><defs
     id="defs1" /><g
     inkscape:label="Layer 1"
     inkscape:groupmode="layer"
     id="layer1"
     transform="translate(-204.68962,-41.086525)"><path
       id="rect63"
       style="fill:#ffffff;stroke:#000000;stroke-width:1.41245"
       d="m 206.41198,41.839626 h 35.35015 c 0.58729,0 1.06009,0.472803 1.06009,1.060097 v 65.845647 c 0,0.58729 -0.4728,1.06009 -1.06009,1.06009 h -35.35015 c -0.58729,0 -1.0601,-0.4728 -1.0601,-1.06009 V 42.899723 c 0,-0.587294 0.47281,-1.060097 1.0601,-1.060097 z" /><path
       id="rect70"
       style="stroke-width:0.448193"
       d="M 223.85899 45.20462 L 223.85899 45.728102 L 208.44288 45.728102 L 208.44288 70.507468 L 208.44288 95.286834 L 223.85899 95.286834 L 223.85899 95.653737 L 239.91744 95.653737 L 239.91744 70.507468 L 239.51385 70.507468 L 239.51385 45.20462 L 223.85899 45.20462 z M 218.27535 51.050258 L 221.26845 51.050258 L 221.26845 62.75497 L 219.7719 62.75497 L 219.7719 64.705755 L 212.28916 64.705755 L 212.28916 62.75497 L 210.79261 62.75497 L 210.79261 60.804185 L 213.78571 60.804185 L 213.78571 62.75497 L 218.27535 62.75497 L 218.27535 51.050258 z M 229.84312 51.050258 L 237.32639 51.050258 L 237.32639 53.001043 L 231.33967 53.001043 L 231.33967 54.951829 L 229.84312 54.951829 L 229.84312 60.804185 L 231.33967 60.804185 L 231.33967 62.75497 L 234.33329 62.75497 L 234.33329 58.853399 L 232.83674 58.853399 L 232.83674 56.902614 L 237.32639 56.902614 L 237.32639 64.705755 L 229.84312 64.705755 L 229.84312 62.75497 L 228.34657 62.75497 L 228.34657 60.804185 L 226.85002 60.804185 L 226.85002 54.951829 L 228.34657 54.951829 L 228.34657 53.001043 L 229.84312 53.001043 L 229.84312 51.050258 z M 210.79261 76.308664 L 219.7719 76.308664 L 219.7719 78.25945 L 221.26845 78.25945 L 221.26845 84.111806 L 218.27535 84.111806 L 218.27535 86.062591 L 219.7719 86.062591 L 219.7719 88.013376 L 221.26845 88.013376 L 221.26845 89.964162 L 216.7788 89.964162 L 216.7788 88.013376 L 215.28226 88.013376 L 215.28226 86.062591 L 213.78571 86.062591 L 213.78571 89.964162 L 210.79261 89.964162 L 210.79261 76.308664 z M 229.84312 76.308664 L 234.33329 76.308664 L 234.33329 78.25945 L 235.82984 78.25945 L 235.82984 80.210235 L 237.32639 80.210235 L 237.32639 89.964162 L 234.33329 89.964162 L 234.33329 86.062591 L 229.84312 86.062591 L 229.84312 89.964162 L 226.85002 89.964162 L 226.85002 80.210235 L 228.34657 80.210235 L 228.34657 78.25945 L 229.84312 78.25945 L 229.84312 76.308664 z M 213.78571 78.25945 L 213.78571 84.111806 L 216.7788 84.111806 L 216.7788 82.16102 L 218.27535 82.16102 L 218.27535 78.25945 L 213.78571 78.25945 z M 231.33967 78.25945 L 231.33967 80.210235 L 229.84312 80.210235 L 229.84312 84.111806 L 234.33329 84.111806 L 234.33329 80.210235 L 232.83674 80.210235 L 232.83674 78.25945 L 231.33967 78.25945 z " /><path
       id="rect67"
       style="fill:none;stroke:#000000;stroke-width:1.11956"
       d="m 209.66675,45.204445 h 28.78531 c 0.81172,0 1.4652,0.653477 1.4652,1.465196 v 47.518712 c 0,0.811719 -0.65348,1.465196 -1.4652,1.465196 h -28.78531 c -0.81172,0 -1.4652,-0.653477 -1.4652,-1.465196 V 46.669641 c 0,-0.811719 0.65348,-1.465196 1.4652,-1.465196 z" /><path
       id="rect5"
       style="stroke-width:0.750001"
       d="m 220.97458,99.98392 v 1.8185 h -2.32905 v 0.90899 h -0.5824 v 2.72748 h 0.5824 v 0.9095 h 3.49384 v -6.36447 z m 2.32958,1.8185 v 0.90899 h -0.58239 v 2.72748 h 0.58239 v 0.9095 h 2.91145 v -0.9095 h -2.32957 v -0.90899 h 2.91196 v -1.81849 h -0.58239 v -0.90899 z m 4.65811,0 v 2.72748 h 0.5824 v 0.90899 h 0.58239 v 0.9095 h 1.16479 v -0.9095 h 0.58239 v -0.90899 h 0.58188 v -2.72748 h -1.16427 v 2.72748 h -1.16479 v -2.72748 z m -8.73435,0.90899 h 1.74666 v 2.72748 h -1.74666 z m 4.65812,0 h 1.74718 v 0.9095 h -1.74718 z m -9.31675,1.81849 v 1.81849 h 1.16479 v -1.81849 z" /></g></svg>
